{"title":"Men of Honor - [Drama] - (2000) - DVDRip x264 - [=Faith=]","uid":14345926,"size":1132692899,"categoryP":"video","categoryS":"movies","magnet":"?xt=urn:btih:ce376dc51465c5800ff192bd762bedca96a23a64&amp;dn=Men+of+Honor+-+%5BDrama%5D+-+%282000%29+-+DVDRip+x264+-+%5B%3DFaith%3D%5D&amp;tr=udp%3A%2F%2Ftracker.leechers-paradise.org%3A6969&amp;tr=udp%3A%2F%2Fzer0day.ch%3A1337&amp;tr=udp%3A%2F%2Fopen.demonii.com%3A1337&amp;tr=udp%3A%2F%2Ftracker.coppersurfer.tk%3A6969&amp;tr=udp%3A%2F%2Fexodus.desync.com%3A6969","seeders":6,"leechers":0,"uploader":"Faithwyn","files":3,"time":1460796863,"description":"Men of Honor\r\n\r\n\r\nThe story of Carl Brashear, the first African American,\r\nthen also the first amputee, US Navy Diver\r\nand the man who trained him.\r\n\r\n\r\n\r\nMovie:\r\n\r\nTitle: Men of Honor\r\nGenre: Drama\r\nRating: R\r\nYear: 2000\r\nStars: Cuba Gooding Jr., Robert De Niro, Charlize Theron\r\nDirector: George Tillman Jr.\r\nWriters: Scott Marshall Smith\r\nLanguage: English\r\nSubtitles: English\r\nLength: 2:08\r\nScreen: Letterbox\r\nIMDB Rating: 7.1\r\n\r\n\r\nGeneral:\r\n\r\nComplete name : Men of Honor.mp4\r\nFormat : MPEG-4\r\nFormat profile : Base Media / Version 2\r\nCodec ID : mp4 2\r\nFile size : 1.05 GiB\r\nDuration : 2h 8mn\r\nOverall bit rate mode : Variable\r\nOverall bit rate : 1 173 Kbps\r\nEncoded date : UTC 2014-03-31 12:32:25\r\nTagged date : UTC 2014-03-31 13:08:15\r\nWriting application : HandBrake 0.9.9\r\n\r\n\r\nVideo:\r\n\r\nID : 1\r\nFormat : AVC\r\nFormat/Info : Advanced Video Codec\r\nFormat profile :   \r\nFormat settings, CABAC : Yes\r\nFormat settings, ReFrames : 4 frames\r\nCodec ID : avc1\r\nCodec ID/Info : Advanced Video Coding\r\nDuration : 2h 8mn\r\nBit rate mode : Variable\r\nBit rate : 1 005 Kbps\r\nWidth : 720 pixels\r\nHeight : 320 pixels\r\nDisplay aspect ratio : 2.25:1\r\nFrame rate mode : Variable\r\nFrame rate : 23.976 fps\r\nMinimum frame rate : 23.968 fps\r\nMaximum frame rate : 23.981 fps\r\nColor space : YUV\r\nChroma subsampling : 4:2:0\r\nBit depth : 8 bits\r\nScan type : Progressive\r\nBits/(Pixel*Frame) : 0.182\r\nStream size : 926 MiB (86%)\r\nWriting library : x264 core 130 r2273 b3065e6\r\nColor primaries : BT.601 NTSC\r\nTransfer characteristics : BT.709\r\nMatrix coefficients : BT.601\r\n\r\n\r\nAudio:\r\n\r\nID : 2\r\nFormat : AAC\r\nFormat/Info : Advanced Audio Codec\r\nFormat profile : LC\r\nCodec ID : 40\r\nDuration : 2h 8mn\r\nBit rate mode : Variable\r\nBit rate : 160 Kbps\r\nMaximum bit rate : 311 Kbps\r\nChannel(s) : 2 channels\r\nChannel positions : Front: L R\r\nSampling rate : 48.0 KHz\r\nCompression mode : Lossy\r\nDelay relative to video : 83ms\r\nStream size : 147 MiB (14%)\r\nLanguage : English\r\n\r\n\r\n\r\nStoryline:\r\n\r\nThe story ultimately revolves around two &quot;men of honor&quot;; their relationship, their\r\nindividual and joint failures and triumphs. Carl Brashear is determined to be the first\r\nAfrican American Navy Diver in a time where racism is rife. Leslie Sunday is his embittered\r\ntrainer, determined to see him fail. Fate, challenges and circumstances eventually draw\r\nthese two men together in a tale of turbulence and ultimately triumph","torrent":{"xt":"urn:btih:ce376dc51465c5800ff192bd762bedca96a23a64","amp;dn":"Men+of+Honor+-+%5BDrama%5D+-+%282000%29+-+DVDRip+x264+-+%5B%3DFaith%3D%5D","amp;tr":["udp%3A%2F%2Ftracker.leechers-paradise.org%3A6969","udp%3A%2F%2Fzer0day.ch%3A1337","udp%3A%2F%2Fopen.demonii.com%3A1337","udp%3A%2F%2Ftracker.coppersurfer.tk%3A6969","udp%3A%2F%2Fexodus.desync.com%3A6969"],"infoHash":"ce376dc51465c5800ff192bd762bedca96a23a64","infoHashBuffer":{"type":"Buffer","data":[206,55,109,197,20,101,197,128,15,241,146,189,118,43,237,202,150,162,58,100]},"announce":[],"urlList":[]}}